<?xml version="1.0" standalone="no"?>
<!DOCTYPE svg PUBLIC "-//W3C//DTD SVG 1.1//EN" "http://www.w3.org/Graphics/SVG/1.1/DTD/svg11.dtd" >
<svg xmlns="http://www.w3.org/2000/svg">
<metadata>Generated by IcoMoon</metadata>
<defs>
<font id="string_art_studio" horiz-adv-x="1024">
<font-face units-per-em="1024" ascent="960" descent="-64" />
<missing-glyph horiz-adv-x="1024" />
<glyph unicode="&#x20;" horiz-adv-x="512" d="" />
<glyph unicode="&#xe900;" glyph-name="menu" d="M511.814 544.094c53.508-0.001 96.885-43.378 96.885-96.887s-43.378-96.887-96.887-96.887c-53.509 0-96.887 43.378-96.887 96.887v0c0 53.509 43.378 96.887 96.887 96.887 0.001 0 0.001 0 0.002 0v0zM511.814 916.963c53.508-0.001 96.885-43.378 96.885-96.887s-43.378-96.887-96.887-96.887c-53.509 0-96.887 43.378-96.887 96.887 0 0.001 0 0.001 0 0.002v0c0.001 53.508 43.378 96.885 96.887 96.885 0.001 0 0.001 0 0.002 0v0zM511.814 172.663c53.508-0.001 96.885-43.378 96.885-96.887s-43.378-96.887-96.887-96.887c-53.509 0-96.887 43.378-96.887 96.887 0 0.001 0 0.001 0 0.002v0c0 53.508 43.377 96.885 96.885 96.885 0.001 0 0.003 0 0.004 0v0z" />
<glyph unicode="&#xe901;" glyph-name="arrow_left" d="M20.201 406.49l338.595-338.595c10.832-10.831 25.796-17.531 42.324-17.531 33.058 0 59.856 26.799 59.856 59.856 0 16.529-6.7 31.494-17.532 42.325l-235.835 235.832h756.068c0.006 0 0.014 0 0.021 0 18.543 0 35.115 8.437 46.087 21.682l0.080 0.1q1.832 2.218 3.445 4.609c6.402 9.387 10.223 20.98 10.223 33.465s-3.821 24.078-10.357 33.673l0.133-0.208q-1.61 2.394-3.445 4.609c-11.052 13.344-27.624 21.782-46.167 21.782-0.007 0-0.015 0-0.022 0h-759.059l238.824 238.824c10.721 10.813 17.346 25.702 17.346 42.139 0 33.057-26.798 59.856-59.856 59.856-16.437 0-31.326-6.625-42.143-17.35l-338.588-338.588c-10.819-11.177-17.487-26.43-17.487-43.24s6.668-32.062 17.503-43.257l-0.016 0.017z" />
<glyph unicode="&#xe902;" glyph-name="arrow_right" d="M1003.335 406.49l-338.598-338.595c-10.832-10.831-25.796-17.531-42.324-17.531-33.058 0-59.856 26.799-59.856 59.856 0 16.529 6.7 31.494 17.532 42.325l235.832 235.832h-756.065c-0.007 0-0.015 0-0.022 0-18.542 0-35.114 8.437-46.085 21.682l-0.080 0.1q-1.829 2.218-3.445 4.609c-6.402 9.388-10.223 20.98-10.223 33.465s3.82 24.078 10.356 33.673l-0.133-0.208q1.613 2.394 3.445 4.609c11.051 13.344 27.623 21.782 46.165 21.782 0.008 0 0.016 0 0.024 0h759.059l-238.824 238.824c-10.721 10.813-17.346 25.702-17.346 42.139 0 33.057 26.798 59.856 59.856 59.856 16.437 0 31.326-6.625 42.143-17.35l338.591-338.588c10.819-11.177 17.487-26.43 17.487-43.24s-6.668-32.062-17.503-43.257l0.016 0.017z" />
<glyph unicode="&#xe903;" glyph-name="caret_down" d="M534.528 266.921c-4.523-7.645-12.726-12.691-22.107-12.691s-17.584 5.046-22.042 12.572l-0.065 0.119-163.249 279.562c-2.196 3.698-3.494 8.152-3.494 12.91 0 14.138 11.462 25.6 25.6 25.6 0.001 0 0.001 0 0.002 0h326.479c0.001 0 0.001 0 0.002 0 14.138 0 25.6-11.462 25.6-25.6 0-4.758-1.298-9.212-3.559-13.029l0.065 0.119z" />
<glyph unicode="&#xe904;" glyph-name="download" d="M968.676 28.037h-914.028c-29.65 0-53.686 24.036-53.686 53.686v0 143.444c0 29.65 24.036 53.686 53.686 53.686v0h19.548c29.65 0 53.686-24.036 53.686-53.686v0-70.211h767.56v70.211c0 29.65 24.036 53.686 53.686 53.686v0h19.548c29.65 0 53.686-24.036 53.686-53.686v0-143.444c0-29.65-24.036-53.686-53.686-53.686v0zM520.63 234.117c-2.367-2.131-5.515-3.435-8.968-3.435s-6.601 1.304-8.98 3.445l0.012-0.011-220.928 198.377c-2.74 2.467-4.456 6.026-4.456 9.987 0 7.41 6.006 13.417 13.415 13.42h145.042v358.774c0 42.991 34.851 77.842 77.842 77.842s77.842-34.851 77.842-77.842v0-358.776h141.11c7.41-0.002 13.416-6.010 13.416-13.42 0-3.96-1.715-7.519-4.443-9.976l-0.012-0.011z" />
<glyph unicode="&#xe905;" glyph-name="fullscreen" d="M973.824 115.31h-135.347c-0.208-0.003-0.453-0.005-0.699-0.005-26.371 0-47.749 21.378-47.749 47.749s21.378 47.749 47.749 47.749c0.246 0 0.491-0.002 0.736-0.006h87.561v87.606c-0.003 0.208-0.005 0.453-0.005 0.699 0 26.371 21.378 47.749 47.749 47.749s47.749-21.378 47.749-47.749c0-0.246-0.002-0.491-0.006-0.736v0.037-135.347c0-26.367-21.372-47.742-47.738-47.747v0zM973.824 548.163c-26.371 0-47.749 21.378-47.749 47.749v87.608h-87.611c-0.208-0.003-0.453-0.005-0.699-0.005-26.371 0-47.749 21.378-47.749 47.749s21.378 47.749 47.749 47.749c0.246 0 0.491-0.002 0.736-0.006h135.323c26.37 0 47.747-21.377 47.747-47.747 0-0.001 0-0.002 0-0.003v0-135.347c0-0.001 0-0.002 0-0.003 0-26.37-21.377-47.747-47.747-47.747v0zM186.153 115.31h-135.347c-26.37 0-47.747 21.377-47.747 47.747v0 135.347c-0.003 0.208-0.005 0.453-0.005 0.699 0 26.371 21.378 47.749 47.749 47.749s47.749-21.378 47.749-47.749c0-0.246-0.002-0.491-0.006-0.736v0.037-87.598h87.606c0.104 0.001 0.227 0.001 0.35 0.001 26.371 0 47.749-21.378 47.749-47.749s-21.378-47.749-47.749-47.749c-0.123 0-0.246 0-0.369 0.001h0.019zM186.153 683.51h-87.593v-87.598c0.003-0.208 0.005-0.453 0.005-0.699 0-26.371-21.378-47.749-47.749-47.749s-47.749 21.378-47.749 47.749c0 0.246 0.002 0.491 0.006 0.736v-0.037 135.347c0 26.366 21.369 47.74 47.733 47.749h135.348c26.069-0.394 47.050-21.619 47.050-47.744s-20.981-47.35-47.013-47.744h-0.037z" />
<glyph unicode="&#xe906;" glyph-name="hamburger" d="M1023.547 763.464v-9.155c0-26.863-21.777-48.64-48.64-48.64v0h-925.051c-26.863 0-48.64 21.777-48.64 48.64v0 9.155c0 26.863 21.777 48.64 48.64 48.64v0h925.051c26.863 0 48.64-21.777 48.64-48.64v0zM1023.547 469.368v-9.155c0-26.863-21.777-48.64-48.64-48.64v0h-925.051c-26.863 0-48.64 21.777-48.64 48.64v0 9.155c0 26.863 21.777 48.64 48.64 48.64v0h925.051c26.863 0 48.64-21.777 48.64-48.64v0zM1023.547 175.273v-9.155c0-26.863-21.777-48.64-48.64-48.64v0h-925.051c-26.863 0-48.64 21.777-48.64 48.64v0 9.155c0 26.863 21.777 48.64 48.64 48.64v0h925.051c26.863 0 48.64-21.777 48.64-48.64v0z" />
<glyph unicode="&#xe907;" glyph-name="options" d="M894.945 649.672h-167.508c-30.674 0.214-55.458 25.13-55.458 55.835s24.784 55.621 55.438 55.835h167.528c0.112 0.001 0.245 0.001 0.378 0.001 30.837 0 55.836-24.999 55.836-55.836s-24.999-55.836-55.836-55.836c-0.133 0-0.266 0-0.398 0.001h0.020zM758.147 903.724c0.209 29.137 23.878 52.677 53.044 52.677s52.836-23.54 53.044-52.657v-120.066h-106.089v120.046zM596.224 49.436h-167.508c-30.837 0-55.836 24.999-55.836 55.836s24.999 55.836 55.836 55.836h167.508c30.837 0 55.836-24.999 55.836-55.836s-24.999-55.836-55.836-55.836v0zM459.425 903.724c0.209 29.137 23.878 52.677 53.044 52.677s52.836-23.54 53.044-52.657v-720.302h-106.089v720.282zM297.503 336.991h-167.508c-30.837 0-55.836 24.999-55.836 55.836s24.999 55.836 55.836 55.836h167.508c30.837 0 55.836-24.999 55.836-55.836s-24.999-55.836-55.836-55.836v0zM160.704 903.724c0.209 29.137 23.878 52.677 53.044 52.677s52.836-23.54 53.044-52.657v-432.747h-106.089v432.727zM266.793-9.193c-0.209-29.137-23.878-52.677-53.044-52.677s-52.836 23.54-53.044 52.657v323.86h106.089v-323.84zM565.514-9.193c-0.209-29.137-23.878-52.677-53.044-52.677s-52.836 23.54-53.044 52.657v36.313h106.079v-36.293zM864.236-9.193c-0.209-29.137-23.878-52.677-53.044-52.677s-52.836 23.54-53.044 52.657v636.549h106.089v-636.529z" />
<glyph unicode="&#xe908;" glyph-name="pause" d="M847.795-16.241h-210.355c-33.773 0.001-61.151 27.38-61.151 61.153v803.615c0 33.773 27.378 61.152 61.151 61.153h210.355c33.772-0.001 61.149-27.379 61.151-61.151v0-803.617c0-33.773-27.378-61.152-61.151-61.153v0zM386.568-16.241h-210.363c-33.773 0.001-61.151 27.38-61.151 61.153v0 803.615c0 0.001 0 0.002 0 0.003 0 33.773 27.378 61.151 61.151 61.151h210.355c0.002 0 0.003 0 0.005 0 33.774 0 61.153-27.379 61.153-61.153v-803.615c0-33.774-27.379-61.153-61.153-61.153-0.002 0-0.004 0-0.005 0v0z" />
<glyph unicode="&#xe909;" glyph-name="play" d="M922.88 492.244c15.238-9.057 25.29-25.435 25.29-44.16s-10.052-35.102-25.054-44.030l-0.235-0.13-721.779-423.322c-7.415-4.421-16.354-7.035-25.902-7.035-28.277 0-51.2 22.923-51.2 51.2 0 0 0 0 0 0v0 846.625c0 0 0 0 0 0 0 28.277 22.923 51.2 51.2 51.2 9.549 0 18.487-2.614 26.138-7.165l-0.236 0.13z" />
<glyph unicode="&#xe90a;" glyph-name="refresh" d="M556.088-16.727c-0.070 0-0.153 0-0.235 0-164.928 0-309.8 85.869-392.348 215.338l-1.119 1.878 88.32 60.613c64.117-103.196 176.855-170.881 305.402-170.881 197.912 0 358.351 160.439 358.351 358.351s-160.439 358.351-358.351 358.351c-173.203 0-317.706-122.879-351.088-286.216l-0.394-2.308h77.693c3.504-0.001 6.345-2.842 6.345-6.346 0-1.849-0.791-3.513-2.052-4.673l-0.005-0.004-135.997-124.657c-1.125-1.035-2.632-1.669-4.288-1.669s-3.163 0.634-4.293 1.673l0.005-0.004-135.985 124.657c-1.266 1.164-2.057 2.828-2.057 4.677 0 3.504 2.84 6.345 6.345 6.346h85.64c35.113 225.242 227.709 395.571 460.088 395.571 257.005 0 465.349-208.344 465.349-465.349 0-256.997-208.33-465.336-465.324-465.349h-0.001z" />
<glyph unicode="&#xe90b;" glyph-name="share" d="M800.348 590.761c-0.045 0-0.098 0-0.151 0-37.408 0-71.227 15.364-95.492 40.126l-0.022 0.022-345.111-164.329c0.781-5.408 1.226-11.653 1.226-18.002 0-8.92-0.88-17.634-2.557-26.061l0.14 0.846 341.181-162.46c24.697 28.019 60.667 45.602 100.744 45.602 74.052 0 134.083-60.031 134.083-134.083s-60.031-134.083-134.083-134.083c-74.052 0-134.083 60.031-134.083 134.083 0 0.013 0 0.027 0 0.040v-0.002c0 3.584 0.184 7.135 0.461 10.655l-349.619 166.474c-23.761-21.752-55.549-35.080-90.449-35.080-74.086 0-134.144 60.058-134.144 134.144s60.058 134.144 134.144 134.144c37.587 0 71.564-15.459 95.918-40.366l0.024-0.025 344.932 164.239c-0.792 5.476-1.244 11.799-1.244 18.227 0 74.067 60.043 134.111 134.111 134.111s134.111-60.043 134.111-134.111c0-74.067-60.043-134.111-134.111-134.111-0.004 0-0.007 0-0.011 0h0.001z" />
<glyph unicode="&#xe90c;" glyph-name="thumbnails" d="M962.573-17.347h-361.935c-10.198 0-18.465 8.267-18.465 18.465 0 0.001 0 0.002 0 0.003v0 361.935c0 10.198 8.267 18.465 18.465 18.465v0h361.935c10.198 0 18.465-8.267 18.465-18.465v0-361.935c0-0.001 0-0.002 0-0.003 0-10.198-8.267-18.465-18.465-18.465v0zM962.573 514.478h-361.935c-10.198 0-18.465 8.267-18.465 18.465v0 361.935c0 10.198 8.267 18.465 18.465 18.465v0h361.935c10.198 0 18.465-8.267 18.465-18.465v0-361.935c0-10.198-8.267-18.465-18.465-18.465v0zM423.363-17.347h-361.923c-10.198 0.001-18.465 8.269-18.465 18.468v361.935c0 10.198 8.267 18.465 18.465 18.465v0h361.923c10.198 0 18.465-8.267 18.465-18.465v0-361.935c0-0.001 0-0.002 0-0.003 0-10.198-8.267-18.465-18.465-18.465v0zM423.363 514.478h-361.923c-10.198 0-18.465 8.267-18.465 18.465v0 361.935c0 10.198 8.267 18.465 18.465 18.465v0h361.923c10.198 0 18.465-8.267 18.465-18.465v0-361.935c0-10.198-8.267-18.465-18.465-18.465v0z" />
<glyph unicode="&#xe90d;" glyph-name="x" d="M630.681 448.064l369.265-369.27c14.823-14.824 23.992-35.304 23.992-57.924s-9.168-43.1-23.992-57.924l-2.897-2.897c-14.824-14.823-35.304-23.992-57.924-23.992s-43.1 9.168-57.924 23.992l-369.265 369.27-369.265-369.265c-14.824-14.823-35.304-23.992-57.924-23.992s-43.1 9.168-57.924 23.992l-2.894 2.897c-14.824 14.824-23.993 35.303-23.993 57.924s9.169 43.1 23.993 57.924l369.265 369.265-369.265 369.265c-14.824 14.824-23.993 35.303-23.993 57.924s9.169 43.1 23.993 57.924l2.894 2.894c14.824 14.824 35.303 23.993 57.924 23.993s43.1-9.169 57.924-23.993l369.265-369.265 369.27 369.265c14.824 14.824 35.303 23.993 57.924 23.993s43.1-9.169 57.924-23.993l2.897-2.897c14.823-14.824 23.992-35.304 23.992-57.924s-9.168-43.1-23.992-57.924v0z" />
<glyph unicode="&#xe90e;" glyph-name="diskette" horiz-adv-x="1013" d="M856.749 958.195l154.522-154.533v-829.252c0-0.001 0-0.002 0-0.004 0-20.196-16.372-36.569-36.569-36.569h-936.233c-20.198 0-36.573 16.374-36.573 36.573v947.212c0 20.198 16.374 36.573 36.573 36.573v0zM199.982 894.512v-250.837c0-20.196 16.372-36.569 36.569-36.569 0.001 0 0.003 0 0.004 0h518.745c20.196 0 36.569 16.372 36.569 36.569v0 250.837zM875.986 479.101c0 20.198-16.374 36.573-36.573 36.573v0h-669.282c-20.198 0-36.573-16.374-36.573-36.573v0-442.993h742.409v442.993zM220.404 458.948h569.542c17.189 0 31.125-12.382 31.125-27.656v-335.013h-631.815v335.013c0 15.274 13.933 27.656 31.122 27.656zM598.086 658.845v195.153h95.708v-195.153h-95.733z" />
<glyph unicode="&#xe90f;" glyph-name="diskette_b" horiz-adv-x="1012" d="M972.892-61.891h-101.71v546.173c0 20.806-16.866 37.672-37.672 37.672-0.002 0-0.003 0-0.005 0h-651.443c-20.805-0.001-37.67-16.867-37.67-37.672v-546.173h-105.532c-20.806 0-37.672 16.866-37.672 37.672v0 945.354c0 20.806 16.866 37.672 37.672 37.672v0l135.318-0.411 0.7-278.037c0-20.806 16.866-37.672 37.672-37.672v0h583.625c20.804 0 37.67 16.865 37.67 37.67 0 0.001 0 0.002 0 0.002v0 277.337l17.531 1.104 159.179-159.179v-823.841c0-20.802-16.861-37.667-37.662-37.672h-0.001zM233.823 463.517h548.751c17.706 0 32.059-12.755 32.059-28.489v-496.919h-612.868v496.924c0 15.734 14.353 28.489 32.059 28.489zM871.181-62.836h-56.549v0.945h56.549v-0.945zM201.764-62.836h-57.373v0.945h57.373v-0.945zM746.584 702.062h-486.514c-15.462 0-27.997 12.535-27.997 27.997v0 228.338h542.507v-228.338c0-15.462-12.535-27.997-27.997-27.997v0zM714.933 902.116c0 6.443-5.223 11.665-11.665 11.665v0h-50.292c-6.443 0-11.665-5.223-11.665-11.665v0-132.411c0-6.443 5.223-11.665 11.665-11.665v0h50.292c6.443 0 11.665 5.223 11.665 11.665v0 132.411z" />
<glyph unicode="&#xe910;" glyph-name="plus" d="M937.984 365.138h-340.992v-343.122c-0.235-46.172-37.719-83.51-83.924-83.51s-83.689 37.338-83.924 83.488v343.145h-343.128c-46.352 0-83.927 37.575-83.927 83.927s37.575 83.927 83.927 83.927h343.122v340.992c0 46.352 37.575 83.927 83.927 83.927s83.927-37.575 83.927-83.927v0-340.992h340.992c46.352 0 83.927-37.575 83.927-83.927s-37.575-83.927-83.927-83.927v0z" />
<glyph unicode="&#xe911;" glyph-name="trash" d="M101.503 751.923v36.399c0 40.194 27.077 72.78 60.475 72.78h200.544v63.769c0 16.76 13.587 30.347 30.347 30.347v0h236.706c16.76 0 30.347-13.587 30.347-30.347v0-63.769h200.544c33.401 0 60.475-32.584 60.475-72.78v-36.399h-819.44zM628.396 899.658c0 11.732-9.51 21.242-21.242 21.242h-188.826c-11.732 0-21.242-9.51-21.242-21.242v0-38.556h231.309v38.556zM788.718-0.385c0-0.001 0-0.001 0-0.002 0-31.599-25.616-57.215-57.215-57.215h-437.699c-31.599 0-57.215 25.616-57.215 57.215 0 0.001 0 0.001 0 0.002v0l-110.211 729.498h772.551zM393.304 58.188l-53.985 550.060c-1.676 16.59-15.569 29.431-32.461 29.431-18.014 0-32.617-14.603-32.617-32.617 0-1.122 0.057-2.23 0.167-3.323l-0.011 0.138 53.985-550.060c1.677-16.59 15.569-29.43 32.461-29.43 18.014 0 32.617 14.603 32.617 32.617 0 1.122-0.057 2.231-0.167 3.324l0.011-0.138zM543.832 609.243c-0.146 17.901-14.692 32.356-32.613 32.356s-32.467-14.455-32.613-32.342v-552.714c0.146-17.901 14.692-32.356 32.613-32.356s32.467 14.455 32.613 32.342v552.716zM713.044 637.518c-0.953 0.099-2.059 0.155-3.179 0.155-16.889 0-30.779-12.838-32.445-29.288l-0.011-0.138-53.998-550.058c-0.099-0.955-0.156-2.064-0.156-3.186 0-18.014 14.603-32.617 32.617-32.617 16.892 0 30.785 12.841 32.45 29.294l0.011 0.138 53.985 550.060c0.099 0.955 0.156 2.063 0.156 3.185 0 16.889-12.838 30.78-29.288 32.445l-0.138 0.011z" />
<glyph unicode="&#xe912;" glyph-name="pencil" d="M616.419 855.757l163.84-128.569-420.997-536.48-1.245 0.977c-0.555-0.408-1.183-0.791-1.845-1.118l-0.074-0.033-173.087-72.247c-1.574-0.762-3.422-1.207-5.375-1.207-6.945 0-12.575 5.63-12.575 12.575 0 0.892 0.093 1.762 0.269 2.601l-0.014-0.082 29.020 185.301c0.244 1.175 0.613 2.216 1.102 3.186l-0.033-0.073 0.649-0.51zM652.065 901.181l31.035 39.547c8.845 11.198 22.423 18.32 37.664 18.32 11.2 0 21.502-3.846 29.656-10.289l-0.101 0.077 88.51-69.456c11.197-8.845 18.319-22.422 18.319-37.663 0-11.2-3.846-21.502-10.29-29.657l0.077 0.101-31.033-39.553zM43.008 26.112h931.84c22.622 0 40.96-18.338 40.96-40.96v-4.096c0-22.622-18.338-40.96-40.96-40.96h-931.84c-22.622 0-40.96 18.338-40.96 40.96v4.096c0 22.622 18.338 40.96 40.96 40.96z" />
<glyph unicode="&#xe913;" glyph-name="rotate" d="M1016.895 367.8l-114.098-144.447c-2.528-3.244-6.436-5.311-10.827-5.311s-8.298 2.067-10.804 5.28l-0.023 0.031-114.098 144.447c-1.786 2.29-2.864 5.208-2.864 8.378 0 7.56 6.129 13.689 13.689 13.689 0 0 0 0 0 0h67.338c-6.689 210.16-174.752 379.564-384.365 388.391v-64.633c0-0.001 0-0.001 0-0.002 0-7.56-6.129-13.689-13.689-13.689-3.155 0-6.060 1.067-8.375 2.86l0.031-0.023-145.613 114.309c-3.266 2.527-5.348 6.448-5.348 10.854s2.082 8.327 5.317 10.831l0.031 0.023 145.613 114.307c2.284 1.77 5.189 2.837 8.344 2.837 7.56 0 13.689-6.129 13.689-13.689 0-0.001 0-0.002 0-0.002v0-68.096c262.554-8.919 473.498-221.184 480.256-484.278h64.977c7.557-0.004 13.681-6.131 13.681-13.689 0-3.17-1.078-6.088-2.886-8.409l0.023 0.031zM665.936 552.546v-560.538c0-27.275-22.111-49.385-49.385-49.385v0h-560.527c-27.275 0-49.385 22.111-49.385 49.385 0 0.004 0 0.007 0 0.011v-0.001 560.527c0 27.275 22.111 49.385 49.385 49.385v0h560.538c27.27-0.006 49.375-22.114 49.375-49.385v0zM577.053 488.344c0 13.637-11.055 24.693-24.693 24.693-0.005 0-0.010 0-0.015 0h-432.127c-13.634-0.004-24.685-11.056-24.687-24.691v0-432.128c0.001-13.634 11.053-24.687 24.686-24.691h432.128c0.001 0 0.003 0 0.004 0 13.637 0 24.692 11.054 24.693 24.691v0 432.128z" />
<glyph unicode="&#xe914;" glyph-name="thread" d="M704.878 707.412c-7.442 20.037-29.733 30.234-49.785 22.905-0.889-0.329-91.275-32.658-279.845-33.679-166.232-0.856-292.89 40.598-295.088 41.337-20.319 6.864-42.288-4.070-49.134-24.353-6.846-20.301 4.052-42.317 24.335-49.159 5.566-1.883 136.671-45.429 314.394-45.429 1.96 0 3.939 0 5.899 0.018 204.423 1.119 302.482 37.051 306.534 38.565 19.997 7.526 30.113 29.769 22.689 49.796zM704.878 597.054c-7.442 20.037-29.733 30.252-49.785 22.905-0.889-0.333-91.275-32.658-279.845-33.69-166.232-0.87-292.89 40.613-295.088 41.351-20.319 6.846-42.288-4.070-49.134-24.364-6.846-20.301 4.052-42.306 24.335-49.148 5.566-1.887 136.671-45.44 314.394-45.44 1.96 0 3.939 0 5.899 0.018 204.423 1.126 302.482 37.061 306.534 38.576 19.997 7.545 30.113 29.765 22.689 49.792zM655.089 509.623c-0.889-0.329-91.275-32.658-279.845-33.668-166.572-0.267-292.871 40.609-295.088 41.348-20.319 6.846-42.288-4.070-49.134-24.353-6.846-20.308 4.052-42.306 24.335-49.141 5.566-1.913 136.649-45.429 314.339-45.429 1.979 0 3.961 0 5.954 0 204.423 1.115 302.482 37.040 306.534 38.594 19.997 7.501 30.109 29.711 22.685 49.748-7.435 20.030-29.725 30.23-49.781 22.901zM55.384 211.163c5.566-1.894 136.649-45.429 314.339-45.429 1.979 0 3.957 0 5.954 0.018 204.427 1.097 302.464 37.040 306.556 38.554 19.979 7.523 30.073 29.733 22.645 49.766-7.42 20.019-29.692 30.186-49.763 22.916-0.911-0.34-91.279-32.647-279.845-33.671-1.829-0.018-3.61-0.018-5.416-0.018-163.76 0-287.495 40.638-289.671 41.359-20.319 6.839-42.288-4.089-49.134-24.349-6.846-20.323 4.052-42.291 24.335-49.145zM0.018 841.205c0-21.416 14.618-48.347 34.454-56.433 46.888-19.109 147.171-46.811 333.711-46.292 183.040-0.523 285.297 27.827 333.36 46.925 19.902 7.918 34.809 34.363 34.809 55.779v45.524c0 4.849-0.911 9.015-2.384 12.584 0 0.066 0.077 0.102 0.077 0.161 0 27.403-163.807 49.613-365.875 49.613-202.061 0.004-365.857-22.21-365.857-49.613 0-0.040 0.055-0.124 0.055-0.161-1.477-3.569-2.366-7.717-2.366-12.566v-45.524h0.018zM368.183 915.909c74.046 0 134.075-11.809 134.075-26.331 0-14.563-60.032-26.331-134.075-26.331-74.072 0-134.075 11.769-134.075 26.331 0.004 14.523 60.003 26.331 134.075 26.331zM736.351 100.363v45.524c0 21.416-15.51 30.885-35.566 23.329-51.701-19.412-160.625-50.542-332.603-53.307-171.959 2.765-280.905 33.898-332.603 53.307-20.052 7.556-35.562-1.909-35.562-23.329v-45.524c0-21.416 14.618-48.347 34.454-56.415 46.888-19.090 147.171-46.815 333.711-46.303 183.040-0.512 285.297 27.82 333.36 46.947 19.924 7.914 34.809 34.355 34.809 55.771zM781.136 173.232c5.018-103.036 123.151-162.765 136.594-169.238 5.416-2.615 11.136-3.825 16.742-3.825 14.427 0 28.255 8.068 34.937 21.91 9.337 19.24 1.273 42.437-17.971 51.771-25.033 12.197-90.478 54.48-92.829 103.15-9.541 196.681-119.87 226.187-184.766 226.3-0.022 0-0.040 0-0.059 0-5.453 0-10.642-1.174-15.338-3.182-1.137-0.304-2.253-0.453-3.354-0.848-0.889-0.325-91.275-32.669-279.845-33.671-166.572-1.726-292.871 40.616-295.088 41.34-20.319 6.835-42.288-4.089-49.134-24.353-6.846-20.301 4.052-42.302 24.335-49.123 5.566-1.898 136.649-45.451 314.339-45.451 1.979 0 3.961 0 5.954 0.018 189.147 1.042 287.049 31.835 303.865 37.628 28.994-0.702 94.727-10.529 101.617-152.426z" />
<glyph unicode="&#xe915;" glyph-name="step_back" d="M414.020 426.396c-5.512 5.551-8.918 13.199-8.918 21.642s3.406 16.091 8.92 21.644l458.189 461.583c5.567 5.608 13.28 9.079 21.803 9.079 16.966 0 30.72-13.754 30.72-30.72 0-0.001 0-0.003 0-0.004v0-923.167c0-16.966-13.754-30.72-30.72-30.72-8.523 0-16.236 3.471-21.801 9.077l-0.002 0.002zM205.414 943.366h-63.119c-22.622 0-40.96-18.338-40.96-40.96v0-908.812c0-22.622 18.338-40.96 40.96-40.96v0h63.119c22.622 0 40.96 18.338 40.96 40.96v0 908.812c0 22.622-18.338 40.96-40.96 40.96v0z" />
<glyph unicode="&#xe916;" glyph-name="step_forward" d="M609.98 469.68c5.512-5.551 8.918-13.199 8.918-21.642s-3.406-16.091-8.92-21.644l-458.189-461.583c-5.567-5.608-13.28-9.079-21.803-9.079-16.966 0-30.72 13.754-30.72 30.72v0 923.167c0 0.001 0 0.003 0 0.004 0 16.966 13.754 30.72 30.72 30.72 8.523 0 16.236-3.471 21.801-9.077l0.002-0.002zM818.586 943.366h63.119c22.622 0 40.96-18.338 40.96-40.96v0-908.812c0-22.622-18.338-40.96-40.96-40.96v0h-63.119c-22.622 0-40.96 18.338-40.96 40.96v0 908.812c0 22.622 18.338 40.96 40.96 40.96v0z" />
<glyph unicode="&#xe917;" glyph-name="text" d="M858.112 3.584h-688.128c-16.966 0-30.72 13.754-30.72 30.72v0 831.488c0 16.966 13.754 30.72 30.72 30.72v0h688.128c16.966 0 30.72-13.754 30.72-30.72v0-831.488c0-16.966-13.754-30.72-30.72-30.72v0zM856.064 833.024c0 16.966-13.754 30.72-30.72 30.72v0h-620.544c-16.966 0-30.72-13.754-30.72-30.72v0-765.952c0-16.966 13.754-30.72 30.72-30.72v0h620.544c16.966 0 30.72 13.754 30.72 30.72v0 765.952zM265.216 767.488h346.112c9.614 0 17.408-7.794 17.408-17.408s-7.794-17.408-17.408-17.408h-346.112c-9.614 0-17.408 7.794-17.408 17.408s7.794 17.408 17.408 17.408zM265.216 646.656h464.896c9.614 0 17.408-7.794 17.408-17.408s-7.794-17.408-17.408-17.408h-464.896c-9.614 0-17.408 7.794-17.408 17.408s7.794 17.408 17.408 17.408zM265.216 525.824h464.896c9.614 0 17.408-7.794 17.408-17.408s-7.794-17.408-17.408-17.408h-464.896c-9.614 0-17.408 7.794-17.408 17.408s7.794 17.408 17.408 17.408zM265.216 404.992h391.168c9.614 0 17.408-7.794 17.408-17.408s-7.794-17.408-17.408-17.408h-391.168c-9.614 0-17.408 7.794-17.408 17.408s7.794 17.408 17.408 17.408zM265.216 284.16h489.472c9.614 0 17.408-7.794 17.408-17.408s-7.794-17.408-17.408-17.408h-489.472c-9.614 0-17.408 7.794-17.408 17.408s7.794 17.408 17.408 17.408zM265.216 163.328h430.080c9.614 0 17.408-7.794 17.408-17.408s-7.794-17.408-17.408-17.408h-430.080c-9.614 0-17.408 7.794-17.408 17.408s7.794 17.408 17.408 17.408z" />
</font>
</defs>
</svg>
