<?xml version="1.0" encoding="UTF-8"?>
<svg xmlns="http://www.w3.org/2000/svg" viewBox="0 0 1024 1024" width="24" height="24" fill="black">
<g transform="scale(1,-1) translate(0,-960)">
    <path d="M20.201 406.49l338.595-338.595c10.832-10.831 25.796-17.531 42.324-17.531 33.058 0 59.856 26.799 59.856 59.856 0 16.529-6.7 31.494-17.532 42.325l-235.835 235.832h756.068c0.006 0 0.014 0 0.021 0 18.543 0 35.115 8.437 46.087 21.682l0.080 0.1q1.832 2.218 3.445 4.609c6.402 9.387 10.223 20.98 10.223 33.465s-3.821 24.078-10.357 33.673l0.133-0.208q-1.61 2.394-3.445 4.609c-11.052 13.344-27.624 21.782-46.167 21.782-0.007 0-0.015 0-0.022 0h-759.059l238.824 238.824c10.721 10.813 17.346 25.702 17.346 42.139 0 33.057-26.798 59.856-59.856 59.856-16.437 0-31.326-6.625-42.143-17.35l-338.588-338.588c-10.819-11.177-17.487-26.43-17.487-43.24s6.668-32.062 17.503-43.257l-0.016 0.017z"/>
</g></svg>