<?xml version="1.0" encoding="UTF-8"?>
<svg xmlns="http://www.w3.org/2000/svg" viewBox="0 0 1024 1024" width="24" height="24" fill="black">
    <g transform="scale(1,-1) translate(0,-960)">
    <path d="M1003.335 406.49l-338.598-338.595c-10.832-10.831-25.796-17.531-42.324-17.531-33.058 0-59.856 26.799-59.856 59.856 0 16.529 6.7 31.494 17.532 42.325l235.832 235.832h-756.065c-0.007 0-0.015 0-0.022 0-18.542 0-35.114 8.437-46.085 21.682l-0.080 0.1q-1.829 2.218-3.445 4.609c-6.402 9.388-10.223 20.98-10.223 33.465s3.82 24.078 10.356 33.673l-0.133-0.208q1.613 2.394 3.445 4.609c11.051 13.344 27.623 21.782 46.165 21.782 0.008 0 0.016 0 0.024 0h759.059l-238.824 238.824c-10.721 10.813-17.346 25.702-17.346 42.139 0 33.057 26.798 59.856 59.856 59.856 16.437 0 31.326-6.625 42.143-17.35l338.591-338.588c10.819-11.177 17.487-26.43 17.487-43.24s-6.668-32.062-17.503-43.257l0.016 0.017z"/>
</g></svg>