<?xml version="1.0" encoding="UTF-8"?>
<svg xmlns="http://www.w3.org/2000/svg" viewBox="0 0 1024 1024" width="24" height="24" fill="black">
    <g transform="scale(1,-1) translate(0,-960)">
    <path d="M534.528 266.921c-4.523-7.645-12.726-12.691-22.107-12.691s-17.584 5.046-22.042 12.572l-0.065 0.119-163.249 279.562c-2.196 3.698-3.494 8.152-3.494 12.91 0 14.138 11.462 25.6 25.6 25.6 0.001 0 0.001 0 0.002 0h326.479c0.001 0 0.001 0 0.002 0 14.138 0 25.6-11.462 25.6-25.6 0-4.758-1.298-9.212-3.559-13.029l0.065 0.119z"/>
</g></svg>