<svg xmlns="http://www.w3.org/2000/svg" width="433.656" height="451.906" viewBox="0 0 433.656 451.906">
  <path d="M453.344,480.315H409.749v-247.1A16.147,16.147,0,0,0,393.6,217.068H114.379a16.147,16.147,0,0,0-16.146,16.147v247.1H53a16.147,16.147,0,0,1-16.147-16.147V45.971A16.147,16.147,0,0,1,53,29.824L111,30l0.3,119.172a16.147,16.147,0,0,0,16.147,16.147H377.6a16.146,16.146,0,0,0,16.146-16.147V30.3l7.514-.473,68.227,68.227V464.168A16.147,16.147,0,0,1,453.344,480.315Zm-316.779-238.2H371.77c7.589,0,13.741,5.467,13.741,12.211V480.315H122.824V254.324C122.824,247.58,128.976,242.113,136.565,242.113ZM409.749,480.72H385.511v-0.405h24.238v0.405Zm-286.925,0H98.233v-0.405h24.591v0.405Zm233.52-340.85H147.815a12,12,0,0,1-12-12V30H368.344v97.87A12,12,0,0,1,356.344,139.87ZM342.778,54.123a5,5,0,0,0-5-5H316.222a5,5,0,0,0-5,5v56.754a5,5,0,0,0,5,5h21.556a5,5,0,0,0,5-5V54.123Z" transform="translate(-36.344 -29.313)"/>
</svg>
