<svg xmlns="http://www.w3.org/2000/svg" width="275.094" height="278.031" viewBox="0 0 275.094 278.031">
  <defs>
    <style>
      .cls-1 {
        fill: #000;
      }
    </style>
  </defs>
  <path class="cls-1" d="M344.245,111.709L386.2,153.667V378.821a9.929,9.929,0,0,1-9.929,9.93H122.07a9.93,9.93,0,0,1-9.93-9.93V121.639a9.93,9.93,0,0,1,9.93-9.93M165.923,129v68.106a9.929,9.929,0,0,0,9.93,9.929H316.7a9.929,9.929,0,0,0,9.929-9.929V129m22.839,112.79a9.93,9.93,0,0,0-9.93-9.93H157.818a9.93,9.93,0,0,0-9.93,9.93V362.069H349.463V241.79Zm-178,5.472H326.107c4.667,0,8.451,3.362,8.451,7.509v90.961H163.011V254.771C163.011,250.624,166.794,247.262,171.461,247.262Zm102.546-54.275V140H300v52.987H274.007Z" transform="translate(-111.625 -111.219)"/>
</svg>
