<?xml version="1.0" encoding="UTF-8"?>
<svg xmlns="http://www.w3.org/2000/svg" viewBox="0 0 1024 1024" width="24" height="24" fill="black">
    <g transform="scale(1,-1) translate(0,-960)">
    <path d="M968.676 28.037h-914.028c-29.65 0-53.686 24.036-53.686 53.686v0 143.444c0 29.65 24.036 53.686 53.686 53.686v0h19.548c29.65 0 53.686-24.036 53.686-53.686v0-70.211h767.56v70.211c0 29.65 24.036 53.686 53.686 53.686v0h19.548c29.65 0 53.686-24.036 53.686-53.686v0-143.444c0-29.65-24.036-53.686-53.686-53.686v0zM520.63 234.117c-2.367-2.131-5.515-3.435-8.968-3.435s-6.601 1.304-8.98 3.445l0.012-0.011-220.928 198.377c-2.74 2.467-4.456 6.026-4.456 9.987 0 7.41 6.006 13.417 13.415 13.42h145.042v358.774c0 42.991 34.851 77.842 77.842 77.842s77.842-34.851 77.842-77.842v0-358.776h141.11c7.41-0.002 13.416-6.010 13.416-13.42 0-3.96-1.715-7.519-4.443-9.976l-0.012-0.011z"/>
</g></svg>