<?xml version="1.0" encoding="UTF-8"?>
<svg xmlns="http://www.w3.org/2000/svg" viewBox="0 0 1024 1024" width="24" height="24" fill="black">
    <g transform="scale(1,-1) translate(0,-960)">
    <path d="M973.824 115.31h-135.347c-0.208-0.003-0.453-0.005-0.699-0.005-26.371 0-47.749 21.378-47.749 47.749s21.378 47.749 47.749 47.749c0.246 0 0.491-0.002 0.736-0.006h87.561v87.606c-0.003 0.208-0.005 0.453-0.005 0.699 0 26.371 21.378 47.749 47.749 47.749s47.749-21.378 47.749-47.749c0-0.246-0.002-0.491-0.006-0.736v0.037-135.347c0-26.367-21.372-47.742-47.738-47.747v0zM973.824 548.163c-26.371 0-47.749 21.378-47.749 47.749v87.608h-87.611c-0.208-0.003-0.453-0.005-0.699-0.005-26.371 0-47.749 21.378-47.749 47.749s21.378 47.749 47.749 47.749c0.246 0 0.491-0.002 0.736-0.006h135.323c26.37 0 47.747-21.377 47.747-47.747 0-0.001 0-0.002 0-0.003v0-135.347c0-0.001 0-0.002 0-0.003 0-26.37-21.377-47.747-47.747-47.747v0zM186.153 115.31h-135.347c-26.37 0-47.747 21.377-47.747 47.747v0 135.347c-0.003 0.208-0.005 0.453-0.005 0.699 0 26.371 21.378 47.749 47.749 47.749s47.749-21.378 47.749-47.749c0-0.246-0.002-0.491-0.006-0.736v0.037-87.598h87.606c0.104 0.001 0.227 0.001 0.35 0.001 26.371 0 47.749-21.378 47.749-47.749s-21.378-47.749-47.749-47.749c-0.123 0-0.246 0-0.369 0.001h0.019zM186.153 683.51h-87.593v-87.598c0.003-0.208 0.005-0.453 0.005-0.699 0-26.371-21.378-47.749-47.749-47.749s-47.749 21.378-47.749 47.749c0 0.246 0.002 0.491 0.006 0.736v-0.037 135.347c0 26.366 21.369 47.74 47.733 47.749h135.348c26.069-0.394 47.050-21.619 47.050-47.744s-20.981-47.35-47.013-47.744h-0.037z"/>
</g></svg>