<?xml version="1.0" encoding="UTF-8"?>
<svg xmlns="http://www.w3.org/2000/svg" viewBox="0 0 1024 1024" width="24" height="24" fill="black">
    <g transform="scale(1,-1) translate(0,-960)">
    <path d="M1023.547 763.464v-9.155c0-26.863-21.777-48.64-48.64-48.64v0h-925.051c-26.863 0-48.64 21.777-48.64 48.64v0 9.155c0 26.863 21.777 48.64 48.64 48.64v0h925.051c26.863 0 48.64-21.777 48.64-48.64v0zM1023.547 469.368v-9.155c0-26.863-21.777-48.64-48.64-48.64v0h-925.051c-26.863 0-48.64 21.777-48.64 48.64v0 9.155c0 26.863 21.777 48.64 48.64 48.64v0h925.051c26.863 0 48.64-21.777 48.64-48.64v0zM1023.547 175.273v-9.155c0-26.863-21.777-48.64-48.64-48.64v0h-925.051c-26.863 0-48.64 21.777-48.64 48.64v0 9.155c0 26.863 21.777 48.64 48.64 48.64v0h925.051c26.863 0 48.64-21.777 48.64-48.64v0z"/>
</g></svg>