<?xml version="1.0" encoding="UTF-8"?>
<svg xmlns="http://www.w3.org/2000/svg" viewBox="0 0 1024 1024" width="24" height="24" fill="black">
    <g transform="scale(1,-1) translate(0,-960)">
    <path d="M894.945 649.672h-167.508c-30.674 0.214-55.458 25.13-55.458 55.835s24.784 55.621 55.438 55.835h167.528c0.112 0.001 0.245 0.001 0.378 0.001 30.837 0 55.836-24.999 55.836-55.836s-24.999-55.836-55.836-55.836c-0.133 0-0.266 0-0.398 0.001h0.020zM758.147 903.724c0.209 29.137 23.878 52.677 53.044 52.677s52.836-23.54 53.044-52.657v-120.066h-106.089v120.046zM596.224 49.436h-167.508c-30.837 0-55.836 24.999-55.836 55.836s24.999 55.836 55.836 55.836h167.508c30.837 0 55.836-24.999 55.836-55.836s-24.999-55.836-55.836-55.836v0zM459.425 903.724c0.209 29.137 23.878 52.677 53.044 52.677s52.836-23.54 53.044-52.657v-720.302h-106.089v720.282zM297.503 336.991h-167.508c-30.837 0-55.836 24.999-55.836 55.836s24.999 55.836 55.836 55.836h167.508c30.837 0 55.836-24.999 55.836-55.836s-24.999-55.836-55.836-55.836v0zM160.704 903.724c0.209 29.137 23.878 52.677 53.044 52.677s52.836-23.54 53.044-52.657v-432.747h-106.089v432.727zM266.793-9.193c-0.209-29.137-23.878-52.677-53.044-52.677s-52.836 23.54-53.044 52.657v323.86h106.089v-323.84zM565.514-9.193c-0.209-29.137-23.878-52.677-53.044-52.677s-52.836 23.54-53.044 52.657v36.313h106.079v-36.293zM864.236-9.193c-0.209-29.137-23.878-52.677-53.044-52.677s-52.836 23.54-53.044 52.657v636.549h106.089v-636.529z"/>
</g></svg>