<?xml version="1.0" encoding="UTF-8"?>
<svg xmlns="http://www.w3.org/2000/svg" viewBox="0 0 1024 1024" width="24" height="24" fill="black">
    <g transform="scale(1,-1) translate(0,-960)">
    <path d="M847.795-16.241h-210.355c-33.773 0.001-61.151 27.38-61.151 61.153v803.615c0 33.773 27.378 61.152 61.151 61.153h210.355c33.772-0.001 61.149-27.379 61.151-61.151v0-803.617c0-33.773-27.378-61.152-61.151-61.153v0zM386.568-16.241h-210.363c-33.773 0.001-61.151 27.38-61.151 61.153v0 803.615c0 0.001 0 0.002 0 0.003 0 33.773 27.378 61.151 61.151 61.151h210.355c0.002 0 0.003 0 0.005 0 33.774 0 61.153-27.379 61.153-61.153v-803.615c0-33.774-27.379-61.153-61.153-61.153-0.002 0-0.004 0-0.005 0v0z"/>
</g></svg>