<?xml version="1.0" encoding="UTF-8"?>
<svg xmlns="http://www.w3.org/2000/svg" viewBox="0 0 1024 1024" width="24" height="24" fill="black">
    <g transform="scale(1,-1) translate(0,-960)">
    <path d="M922.88 492.244c15.238-9.057 25.29-25.435 25.29-44.16s-10.052-35.102-25.054-44.030l-0.235-0.13-721.779-423.322c-7.415-4.421-16.354-7.035-25.902-7.035-28.277 0-51.2 22.923-51.2 51.2 0 0 0 0 0 0v0 846.625c0 0 0 0 0 0 0 28.277 22.923 51.2 51.2 51.2 9.549 0 18.487-2.614 26.138-7.165l-0.236 0.13z"/>
</g></svg>