<?xml version="1.0" encoding="UTF-8"?>
<svg xmlns="http://www.w3.org/2000/svg" viewBox="0 0 1024 1024" width="24" height="24" fill="black">
    <g transform="scale(1,-1) translate(0,-960)">
    <path d="M556.088-16.727c-0.070 0-0.153 0-0.235 0-164.928 0-309.8 85.869-392.348 215.338l-1.119 1.878 88.32 60.613c64.117-103.196 176.855-170.881 305.402-170.881 197.912 0 358.351 160.439 358.351 358.351s-160.439 358.351-358.351 358.351c-173.203 0-317.706-122.879-351.088-286.216l-0.394-2.308h77.693c3.504-0.001 6.345-2.842 6.345-6.346 0-1.849-0.791-3.513-2.052-4.673l-0.005-0.004-135.997-124.657c-1.125-1.035-2.632-1.669-4.288-1.669s-3.163 0.634-4.293 1.673l0.005-0.004-135.985 124.657c-1.266 1.164-2.057 2.828-2.057 4.677 0 3.504 2.84 6.345 6.345 6.346h85.64c35.113 225.242 227.709 395.571 460.088 395.571 257.005 0 465.349-208.344 465.349-465.349 0-256.997-208.33-465.336-465.324-465.349h-0.001z"/>
</g></svg>