<svg xmlns="http://www.w3.org/2000/svg" width="500" height="500" viewBox="0 0 500 500">
  <path id="Rectangle_1_copy" data-name="Rectangle 1 copy" class="cls-2" d="M496.531,289.16l-55.712,70.531a6.685,6.685,0,0,1-10.573,0L374.534,289.16a6.684,6.684,0,0,1,5.286-10.775H412.7C409.434,175.768,327.372,93.051,225.022,88.741V120.3a6.684,6.684,0,0,1-10.758,5.3l-71.1-55.815a6.684,6.684,0,0,1,0-10.6l71.1-55.814a6.684,6.684,0,0,1,10.758,5.3V41.921c128.2,4.355,231.2,108,234.5,236.464h31.727A6.684,6.684,0,0,1,496.531,289.16ZM325.164,198.952v273.7a24.114,24.114,0,0,1-24.114,24.114H27.355A24.114,24.114,0,0,1,3.241,472.647V198.952a24.114,24.114,0,0,1,24.114-24.114h273.7A24.114,24.114,0,0,1,325.164,198.952Zm-43.4,31.349A12.057,12.057,0,0,0,269.7,218.244H58.7A12.057,12.057,0,0,0,46.646,230.3v211A12.057,12.057,0,0,0,58.7,453.356h211A12.057,12.057,0,0,0,281.759,441.3v-211Z"/>
</svg>
