<?xml version="1.0" encoding="UTF-8"?>
<svg xmlns="http://www.w3.org/2000/svg" viewBox="0 0 1024 1024" width="24" height="24" fill="black">
    <g transform="scale(1,-1) translate(0,-960)">
    <path d="M800.348 590.761c-0.045 0-0.098 0-0.151 0-37.408 0-71.227 15.364-95.492 40.126l-0.022 0.022-345.111-164.329c0.781-5.408 1.226-11.653 1.226-18.002 0-8.92-0.88-17.634-2.557-26.061l0.14 0.846 341.181-162.46c24.697 28.019 60.667 45.602 100.744 45.602 74.052 0 134.083-60.031 134.083-134.083s-60.031-134.083-134.083-134.083c-74.052 0-134.083 60.031-134.083 134.083 0 0.013 0 0.027 0 0.040v-0.002c0 3.584 0.184 7.135 0.461 10.655l-349.619 166.474c-23.761-21.752-55.549-35.080-90.449-35.080-74.086 0-134.144 60.058-134.144 134.144s60.058 134.144 134.144 134.144c37.587 0 71.564-15.459 95.918-40.366l0.024-0.025 344.932 164.239c-0.792 5.476-1.244 11.799-1.244 18.227 0 74.067 60.043 134.111 134.111 134.111s134.111-60.043 134.111-134.111c0-74.067-60.043-134.111-134.111-134.111-0.004 0-0.007 0-0.011 0h0.001z"/>
</g></svg>