<?xml version="1.0" encoding="UTF-8"?>
<svg xmlns="http://www.w3.org/2000/svg" viewBox="0 0 1024 1024" width="24" height="24" fill="black">
    <g transform="scale(1,-1) translate(0,-960)">
    <path d="M962.573-17.347h-361.935c-10.198 0-18.465 8.267-18.465 18.465 0 0.001 0 0.002 0 0.003v0 361.935c0 10.198 8.267 18.465 18.465 18.465v0h361.935c10.198 0 18.465-8.267 18.465-18.465v0-361.935c0-0.001 0-0.002 0-0.003 0-10.198-8.267-18.465-18.465-18.465v0zM962.573 514.478h-361.935c-10.198 0-18.465 8.267-18.465 18.465v0 361.935c0 10.198 8.267 18.465 18.465 18.465v0h361.935c10.198 0 18.465-8.267 18.465-18.465v0-361.935c0-10.198-8.267-18.465-18.465-18.465v0zM423.363-17.347h-361.923c-10.198 0.001-18.465 8.269-18.465 18.468v361.935c0 10.198 8.267 18.465 18.465 18.465v0h361.923c10.198 0 18.465-8.267 18.465-18.465v0-361.935c0-0.001 0-0.002 0-0.003 0-10.198-8.267-18.465-18.465-18.465v0zM423.363 514.478h-361.923c-10.198 0-18.465 8.267-18.465 18.465v0 361.935c0 10.198 8.267 18.465 18.465 18.465v0h361.923c10.198 0 18.465-8.267 18.465-18.465v0-361.935c0-10.198-8.267-18.465-18.465-18.465v0z"/>
</g></svg>