<svg xmlns="http://www.w3.org/2000/svg" width="500" height="500" viewBox="0 0 500 500">
  <path d="M49.562,101.6V83.827c0-19.626,13.221-35.537,29.529-35.537h97.922V17.153A14.818,14.818,0,0,1,191.831,2.335H307.41a14.818,14.818,0,0,1,14.818,14.818V48.29H420.15c16.309,0,29.529,15.91,29.529,35.537V101.6H49.562ZM306.834,29.464a10.372,10.372,0,0,0-10.372-10.372h-92.2a10.372,10.372,0,0,0-10.372,10.372V48.29H306.834V29.464Zm78.282,439.474a27.937,27.937,0,0,1-27.937,27.938H143.459a27.937,27.937,0,0,1-27.937-27.938l-53.814-356.2H438.93Zm-193.073-28.6-26.36-268.584a15.924,15.924,0,0,0-31.7,3.111l26.36,268.584A15.924,15.924,0,1,0,192.043,440.337Zm73.5-269.07a15.925,15.925,0,0,0-31.849,0V441.141a15.925,15.925,0,0,0,31.849,0V171.267Zm82.623-13.806a15.924,15.924,0,0,0-17.4,14.292L304.4,440.337a15.925,15.925,0,1,0,31.7,3.111l26.36-268.584A15.924,15.924,0,0,0,348.168,157.461Z"/>
</svg>
