<?xml version="1.0" encoding="UTF-8"?>
<svg xmlns="http://www.w3.org/2000/svg" viewBox="0 0 1024 1024" width="24" height="24" fill="black">
<g transform="scale(1,-1) translate(0,-960)">
    <path d="M630.681 448.064l369.265-369.27c14.823-14.824 23.992-35.304 23.992-57.924s-9.168-43.1-23.992-57.924l-2.897-2.897c-14.824-14.823-35.304-23.992-57.924-23.992s-43.1 9.168-57.924 23.992l-369.265 369.27-369.265-369.265c-14.824-14.823-35.304-23.992-57.924-23.992s-43.1 9.168-57.924 23.992l-2.894 2.897c-14.824 14.824-23.993 35.303-23.993 57.924s9.169 43.1 23.993 57.924l369.265 369.265-369.265 369.265c-14.824 14.824-23.993 35.303-23.993 57.924s9.169 43.1 23.993 57.924l2.894 2.894c14.824 14.824 35.303 23.993 57.924 23.993s43.1-9.169 57.924-23.993l369.265-369.265 369.27 369.265c14.824 14.824 35.303 23.993 57.924 23.993s43.1-9.169 57.924-23.993l2.897-2.897c14.823-14.824 23.992-35.304 23.992-57.924s-9.168-43.1-23.992-57.924v0z"/>
</g>
</svg>